<svg class="fig" viewBox="0 0 480 320" xmlns="http://www.w3.org/2000/svg" role="img" aria-hidden="true" focusable="false"><polygon points="98.6,187.0 308.2,308.0 308.2,302.5 98.6,181.5" style="fill:var(--cv-g1,#DCE2EA)" stroke="none"/><polygon points="441.6,231.0 308.2,308.0 308.2,302.5 441.6,225.5" style="fill:var(--cv-g2,#C3CBD6)" stroke="none"/><polygon points="232.0,104.5 441.6,225.5 308.2,302.5 98.6,181.5" style="fill:var(--cv-g0,#F1F4F8)" stroke="none"/><ellipse cx="227.2" cy="167.6" rx="66.83600000000001" ry="32.339999999999996" style="fill:var(--cv-sh,rgba(25,31,40,.09))"/><polygon points="180.6,156.2 233.9,187.0 233.9,168.3 180.6,137.5" style="fill:var(--cv-g1,#DCE2EA)" stroke="none"/><polygon points="273.9,163.9 233.9,187.0 233.9,168.3 273.9,145.2" style="fill:var(--cv-g2,#C3CBD6)" stroke="none"/><polygon points="220.6,114.4 273.9,145.2 233.9,168.3 180.6,137.5" style="fill:var(--cv-g0,#F1F4F8)" stroke="none"/><polygon points="180.6,137.5 233.9,168.3 233.9,165.7 180.6,134.9" style="fill:var(--cv-w1,#EDF0F4)" stroke="none"/><polygon points="273.9,145.2 233.9,168.3 233.9,165.7 273.9,142.6" style="fill:var(--cv-w2,#D5DBE3)" stroke="none"/><polygon points="220.6,111.8 273.9,142.6 233.9,165.7 180.6,134.9" style="fill:var(--cv-w0,#FFFFFF)" stroke="none"/><polygon points="180.6,134.9 186.3,138.2 186.3,136.0 180.6,132.7" style="fill:var(--cv-g1,#DCE2EA)" stroke="none"/><polygon points="226.3,115.1 186.3,138.2 186.3,136.0 226.3,112.9" style="fill:var(--cv-g2,#C3CBD6)" stroke="none"/><polygon points="220.6,109.6 226.3,112.9 186.3,136.0 180.6,132.7" style="fill:var(--cv-g0,#F1F4F8)" stroke="none"/><ellipse cx="247.2" cy="217.6" rx="51.831999999999994" ry="25.08" style="fill:var(--cv-sh,rgba(25,31,40,.09))"/><polygon points="211.0,202.4 260.6,231.0 260.6,224.0 211.0,195.4" style="fill:var(--cv-w1,#EDF0F4)" stroke="none"/><polygon points="283.4,217.8 260.6,231.0 260.6,224.0 283.4,210.8" style="fill:var(--cv-w2,#D5DBE3)" stroke="none"/><polygon points="233.9,182.2 283.4,210.8 260.6,224.0 211.0,195.4" style="fill:var(--cv-w0,#FFFFFF)" stroke="none"/><polygon points="214.3,199.0 254.3,222.1 254.3,197.9 214.3,174.8" style="fill:var(--cv-w1,#EDF0F4)" stroke="none"/><polygon points="256.8,220.7 254.3,222.1 254.3,197.9 256.8,196.5" style="fill:var(--cv-w2,#D5DBE3)" stroke="none"/><polygon points="216.8,173.4 256.8,196.5 254.3,197.9 214.3,174.8" style="fill:var(--cv-w0,#FFFFFF)" stroke="none"/><polygon points="218.6,194.8 249.1,212.4 249.1,208.0 218.6,190.4" style="fill:var(--cv-g1,#DCE2EA)" stroke="none"/><polygon points="249.5,212.1 249.1,212.4 249.1,208.0 249.5,207.7" style="fill:var(--cv-g2,#C3CBD6)" stroke="none"/><polygon points="219.0,190.1 249.5,207.7 249.1,208.0 218.6,190.4" style="fill:var(--cv-g0,#F1F4F8)" stroke="none"/><polyline points="273.9,218.9 293.0,229.9 321.5,213.4 331.1,218.9" fill="none" stroke="#4CB994" stroke-width="11" stroke-linejoin="round" stroke-linecap="round"/><polyline points="273.9,218.9 293.0,229.9 321.5,213.4 331.1,218.9" fill="none" stroke="#7FD9BE" stroke-width="8" stroke-linejoin="round" stroke-linecap="round"/><ellipse cx="355.8" cy="240.7" rx="60.016000000000005" ry="29.040000000000003" style="fill:var(--cv-sh,rgba(25,31,40,.09))"/><polygon points="313.9,233.2 355.8,257.4 355.8,176.0 313.9,151.8" fill="#3B7DFF" stroke="none"/><polygon points="397.8,233.2 355.8,257.4 355.8,176.0 397.8,151.8" fill="#2556C4" stroke="none"/><polygon points="355.8,127.6 397.8,151.8 355.8,176.0 313.9,151.8" fill="#A9C4FF" stroke="none"/><polygon points="385.0,201.0 386.1,201.6 386.1,198.1 385.0,197.4" fill="#7FD9BE" stroke="none"/><polygon points="392.2,198.1 386.1,201.6 386.1,198.1 392.2,194.6" fill="#7FD9BE" stroke="none"/><polygon points="391.1,193.9 392.2,194.6 386.1,198.1 385.0,197.4" fill="#7FD9BE" stroke="none"/><polygon points="385.0,188.9 386.1,189.5 386.1,186.0 385.0,185.3" fill="#7FD9BE" stroke="none"/><polygon points="392.2,186.0 386.1,189.5 386.1,186.0 392.2,182.5" fill="#7FD9BE" stroke="none"/><polygon points="391.1,181.8 392.2,182.5 386.1,186.0 385.0,185.3" fill="#7FD9BE" stroke="none"/><polygon points="385.0,176.8 386.1,177.4 386.1,173.9 385.0,173.2" fill="#7FD9BE" stroke="none"/><polygon points="392.2,173.9 386.1,177.4 386.1,173.9 392.2,170.4" fill="#7FD9BE" stroke="none"/><polygon points="391.1,169.7 392.2,170.4 386.1,173.9 385.0,173.2" fill="#7FD9BE" stroke="none"/><polygon points="317.7,223.3 350.1,242.0 350.1,231.0 317.7,212.3" fill="#2556C4" stroke="none"/><polygon points="351.1,241.4 350.1,242.0 350.1,231.0 351.1,230.4" fill="#2556C4" stroke="none"/><polygon points="318.7,211.8 351.1,230.4 350.1,231.0 317.7,212.3" fill="#2556C4" stroke="none"/><polygon points="317.7,198.0 350.1,216.7 350.1,205.7 317.7,187.0" fill="#2556C4" stroke="none"/><polygon points="351.1,216.1 350.1,216.7 350.1,205.7 351.1,205.1" fill="#2556C4" stroke="none"/><polygon points="318.7,186.4 351.1,205.1 350.1,205.7 317.7,187.0" fill="#2556C4" stroke="none"/><polygon points="317.7,172.7 350.1,191.4 350.1,180.4 317.7,161.7" fill="#2556C4" stroke="none"/><polygon points="351.1,190.8 350.1,191.4 350.1,180.4 351.1,179.8" fill="#2556C4" stroke="none"/><polygon points="318.7,161.1 351.1,179.8 350.1,180.4 317.7,161.7" fill="#2556C4" stroke="none"/><path d="M355.8,148.5 C325.55,110.0 325.55,68.75 355.8,68.75 C386.05,68.75 386.05,110.0 355.8,148.5 Z" fill="#4CB994"/><path d="M353.6,145.75 C326.925,110.0 326.925,71.5 353.6,70.125 C372.3,70.125 380.55,96.25 369.55,115.5 Z" fill="#7FD9BE"/><circle cx="355.8" cy="92.125" r="11.549999999999999" fill="#fff"/><text x="333.6" y="229.6" transform="rotate(30 333.6 229.6)" text-anchor="middle" font-size="23" font-weight="700" fill="#FFFFFF" font-family="'JetBrains Mono', ui-monospace, 'SFMono-Regular', Menlo, monospace">API</text></svg>